<svg width="34" height="30" viewBox="0 0 34 30" fill="none" xmlns="http://www.w3.org/2000/svg">
<path d="M14.4844 27.4376C14.679 26.9367 14.7717 26.4021 14.7573 25.865C14.7869 24.3764 15.1848 22.9184 15.9153 21.621C16.644 20.3258 17.6831 19.2321 18.9393 18.438C19.4044 18.1885 19.8141 17.8473 20.1435 17.4349C20.4729 17.0225 20.7153 16.5476 20.8559 16.0389C20.9965 15.5301 21.0324 14.9982 20.9615 14.4751C20.8906 13.9521 20.7143 13.4489 20.4433 12.996C20.0813 12.391 19.5603 11.895 18.9393 11.565C18.5833 11.318 18.2413 11.052 17.9153 10.767L17.0983 9.967C15.6012 8.3932 14.7617 6.30708 14.7513 4.135C14.7667 3.59777 14.6744 3.06288 14.4799 2.56188C14.2853 2.06089 13.9923 1.60395 13.6183 1.218C13.2459 0.832488 12.7997 0.52595 12.3062 0.316684C11.8128 0.107418 11.2823 -0.000286365 10.7463 5.71818e-07C10.2106 0.000756001 9.68051 0.108938 9.18738 0.318146C8.69424 0.527354 8.24808 0.833339 7.87527 1.218C7.50189 1.60462 7.20937 2.06183 7.01483 2.56287C6.82029 3.06391 6.72763 3.59872 6.74227 4.136C6.751 4.83344 6.9431 5.5163 7.29927 6.116C7.65421 6.71469 8.16096 7.20902 8.76827 7.549C11.2273 9.105 12.9383 12.08 12.9383 15.006C12.9322 17.1592 12.1087 19.2298 10.6343 20.799L8.77427 22.451C8.16727 22.79 7.66027 23.284 7.30427 23.884C6.94727 24.483 6.75627 25.167 6.74727 25.865C6.73197 26.4022 6.82434 26.9371 7.01892 27.438C7.2135 27.939 7.50637 28.396 7.88027 28.782C8.2527 29.1674 8.69894 29.4739 9.19237 29.6832C9.68579 29.8924 10.2163 30.0002 10.7523 30C11.2881 29.9994 11.8184 29.8913 12.3117 29.682C12.805 29.4728 13.2513 29.1668 13.6243 28.782C13.9975 28.3955 14.2899 27.9384 14.4844 27.4376Z" fill="white"/>
<path d="M19.9163 6.36C19.4753 5.698 19.2403 4.919 19.2403 4.123C19.2409 3.05673 19.6633 2.034 20.4153 1.278C21.0691 0.62024 21.9314 0.210504 22.8543 0.119089C23.7772 0.0276751 24.7031 0.260281 25.4733 0.777001C26.1329 1.2199 26.6466 1.84836 26.9493 2.583C27.252 3.31848 27.331 4.12692 27.1765 4.9071C27.0219 5.68728 26.6406 6.40452 26.0803 6.969C25.5217 7.53193 24.808 7.91563 24.0304 8.07112C23.2527 8.22661 22.4464 8.14685 21.7143 7.842C20.9815 7.53685 20.3557 7.02107 19.9163 6.36Z" fill="white"/>
<path d="M21.0213 22.518C21.6803 22.076 22.4553 21.84 23.2473 21.84V21.838C23.7737 21.8386 24.2949 21.9432 24.7809 22.1457C25.2669 22.3482 25.7081 22.6446 26.0793 23.018C26.7352 23.6779 27.1432 24.544 27.2343 25.47C27.3254 26.3959 27.094 27.3249 26.5793 28.1C26.1399 28.762 25.5137 29.2785 24.7803 29.584C24.0482 29.8888 23.2418 29.9686 22.4642 29.8131C21.6865 29.6576 20.9729 29.2739 20.4143 28.711C19.8538 28.1464 19.4723 27.429 19.3178 26.6486C19.1632 25.8683 19.2423 25.0596 19.5453 24.324C19.848 23.5894 20.3616 22.9609 21.0213 22.518Z" fill="white"/>
<path d="M32.8243 12.758C33.2641 13.4198 33.4991 14.1974 33.4993 14.9931C33.4986 16.0597 33.0762 17.0827 32.3243 17.839C31.953 18.2122 31.5118 18.5086 31.0258 18.7111C30.5398 18.9136 30.0187 19.0182 29.4923 19.019C28.6994 19.019 27.9245 18.783 27.2663 18.341C26.6066 17.8981 26.093 17.2696 25.7903 16.535C25.4873 15.7994 25.4082 14.9907 25.5628 14.2104C25.7173 13.43 26.0988 12.7126 26.6593 12.148C27.2179 11.5849 27.9318 11.2011 28.7096 11.0456C29.4875 10.8901 30.294 10.9699 31.0263 11.275C31.7592 11.5804 32.385 12.0966 32.8243 12.758Z" fill="white"/>
<path d="M2.28026 11.647C2.93926 11.205 3.71326 10.969 4.50626 10.969C5.03261 10.9701 5.55357 11.075 6.03934 11.2776C6.52511 11.4803 6.96617 11.7767 7.33726 12.15C7.99287 12.8097 8.40068 13.6754 8.49178 14.601C8.58288 15.5265 8.35169 16.4552 7.83726 17.23C7.39793 17.8914 6.77217 18.4075 6.03926 18.713C5.3069 19.0164 4.50093 19.0953 3.72361 18.9399C2.94629 18.7845 2.23266 18.4017 1.67326 17.84C1.11296 17.2755 0.731653 16.5583 0.577076 15.7781C0.422498 14.9979 0.501526 14.1895 0.804262 13.454C1.10685 12.719 1.62048 12.0902 2.28026 11.647Z" fill="white"/>
</svg>
